<?xml version="1.0" standalone="no"?>
<!DOCTYPE svg PUBLIC "-//W3C//DTD SVG 20010904//EN"
 "http://www.w3.org/TR/2001/REC-SVG-20010904/DTD/svg10.dtd">
<svg version="1.0" xmlns="http://www.w3.org/2000/svg"
 width="102.000000pt" height="102.000000pt" viewBox="0 0 102.5 102.5"
 preserveAspectRatio="xMidYMid meet">

<g transform="translate(0.000000,150.000000) scale(0.100000,-0.100000)"
fill="#000000" stroke="none">
<path d="M1040 1193 l0 -127 233 -236 c127 -129 237 -236 242 -238 6 -1 39 27
75 63 l65 65 -300 300 c-165 165 -303 300 -307 300 -5 0 -8 -57 -8 -127z"/>
<path d="M1040 773 l0 -127 67 -68 67 -67 -72 -69 -72 -69 0 -121 c0 -78 4
-123 11 -128 11 -7 401 375 397 388 -8 19 -372 388 -384 388 -11 0 -14 -25
-14 -127z"/>
<path d="M3538 890 c-109 -33 -166 -144 -124 -243 16 -38 76 -94 112 -103 42
-11 124 2 152 23 134 99 85 300 -78 326 -19 3 -47 2 -62 -3z m108 -104 c43
-43 46 -90 8 -135 -50 -59 -134 -47 -168 24 -14 29 -15 42 -6 70 26 79 108 99
166 41z"/>
<path d="M1950 715 l0 -175 100 0 100 0 0 35 0 35 -60 0 -60 0 0 35 0 34 58 3
c56 3 57 3 60 36 l3 32 -60 0 -61 0 0 35 0 34 58 3 c56 3 57 3 60 36 l3 32
-100 0 -101 0 0 -175z"/>
<path d="M2240 884 c0 -3 25 -42 56 -87 l56 -81 -61 -88 -61 -88 48 0 c47 0
47 1 84 62 l36 61 39 -62 c37 -59 39 -61 80 -61 24 0 43 3 43 6 0 3 -25 41
-55 84 -30 43 -55 81 -55 84 0 4 22 39 48 79 27 40 52 78 56 85 5 9 -4 12 -36
12 -42 0 -45 -2 -77 -55 -18 -30 -37 -55 -42 -55 -4 0 -23 25 -41 55 -32 52
-35 54 -75 55 -24 0 -43 -3 -43 -6z"/>
<path d="M2752 873 c-13 -25 -132 -319 -132 -327 0 -3 17 -6 38 -6 34 0 39 3
51 35 l12 35 69 0 68 0 12 -35 c11 -32 15 -35 51 -35 48 0 51 -19 -34 190 -62
150 -65 155 -95 158 -22 2 -33 -2 -40 -15z m71 -155 l16 -48 -50 0 c-27 0 -49
2 -49 4 0 2 10 30 22 61 24 64 35 62 61 -17z"/>
<path d="M3040 714 l0 -177 84 5 c73 4 89 8 120 32 84 63 96 177 29 257 -37
43 -80 59 -163 59 l-70 0 0 -176z m144 96 c29 -11 56 -57 56 -95 0 -58 -56
-113 -107 -103 -21 4 -29 69 -18 156 7 56 17 62 69 42z"/>
</g>
</svg>
